# AST/ASF file generated using VICON BodyLanguage
# -----------------------------------------------
:version 1.10
:name VICON
:units
  mass 1.0
  length 0.45
  angle deg
:documentation
   .ast/.asf automatically generated from VICON data using
   VICON BodyBuilder and BodyLanguage model FoxedUp or BRILLIANT.MOD
:root
   order TX TY TZ RX RY RZ
   axis XYZ
   position 0 0 0  
   orientation 0 0 0 
:bonedata
  begin
     id 1 
     name lhipjoint
     direction 0.623415 -0.642378 0.445763 
     length 2.49859 
     axis 0 0 0  XYZ
  end
  begin
     id 2 
     name lfemur
     direction 0.34202 -0.939693 0  
     length 6.69689  
     axis 0 0 20  XYZ
    dof rx ry rz
    limits (-160.0 20.0)
           (-70.0 70.0)
           (-60.0 70.0)
  end
  begin
     id 3 
     name ltibia
     direction 0.34202 -0.939693 0   
     length 7.37574   
     axis 0 0 20   XYZ
    dof rx
    limits (-10.0 170.0)
  end
  begin
     id 4 
     name lfoot
     direction 0.084323 -0.231675 0.969132   
     length 2.09111   
     axis -90 7.62852e-016 20   XYZ
    dof rx rz
    limits (-45.0 90.0)
           (-70.0 20.0)
  end
  begin
     id 5 
     name ltoes
     direction 1.5357e-011 -4.21957e-011 1   
     length 1.04989   
     axis -90 7.62852e-016 20   XYZ
    dof rx
    limits (-90.0 20.0)
  end
  begin
     id 6 
     name rhipjoint
     direction -0.605402 -0.653903 0.45376   
     length 2.45455  
     axis 0 0 0  XYZ 
  end
  begin
     id 7 
     name rfemur
     direction -0.34202 -0.939693 0   
     length 6.64523   
     axis 0 0 -20   XYZ
    dof rx ry rz
    limits (-160.0 20.0)
           (-70.0 70.0)
           (-70.0 60.0)
  end
  begin
     id 8 
     name rtibia
     direction -0.34202 -0.939693 0   
     length 7.3339   
     axis 0 0 -20   XYZ
    dof rx
    limits (-10.0 170.0)
 end
 begin
     id 9 
     name rfoot
     direction -0.120854 -0.332043 0.93549   
     length 2.23135  
     axis -90 -7.62852e-016 -20   XYZ
    dof rx rz
    limits (-45.0 90.0)
           (-20.0 70.0)
  end
  begin
     id 10 
     name rtoes
     direction -1.53563e-011 -4.21914e-011 1   
     length 1.10614   
     axis -90 -7.62852e-016 -20   XYZ
    dof rx
    limits (-90.0 20.0)
  end
  begin
     id 11 
     name lowerback
     direction 0.0319682 0.998615 -0.0417941   
     length 2.02718   
     axis 0 0 0   XYZ
    dof rx ry rz
    limits (-20.0 45.0)
           (-30.0 30.0)
           (-30.0 30.0)
  end
  begin
     id 12 
     name upperback
     direction 7.63181e-005 0.995808 0.0914691   
     length 1.97539   
     axis 0 0 0   XYZ
    dof rx ry rz
    limits (-20.0 45.0)
           (-30.0 30.0)
           (-30.0 30.0)
  end
  begin
     id 13 
     name thorax
     direction -0.016423 0.993627 0.111514   
     length 2.00349   
     axis 0 0 0   XYZ
    dof rx ry rz
    limits (-20.0 45.0)
           (-30.0 30.0)
           (-30.0 30.0)
  end
  begin
     id 14 
     name lowerneck
     direction -0.174763 0.981668 -0.0760716   
     length 1.71436   
     axis 0 0 0   XYZ
    dof rx ry rz
    limits (-20.0 45.0)
           (-30.0 30.0)
           (-30.0 30.0)
  end
  begin
     id 15 
     name upperneck
     direction 0.345458 0.934587 -0.0848868   
     length 1.72805   
     axis 0 0 0   XYZ
    dof rx ry rz
    limits (-20.0 45.0)
           (-30.0 30.0)
           (-30.0 30.0)
  end
  begin
     id 16
     name head
     direction 0.13001 0.989848 -0.0574291  
     length 1.767  
     axis 0 0 0   XYZ
    dof rx ry rz
    limits (-20.0 45.0)
           (-30.0 30.0)
           (-30.0 30.0)
  end
  begin
     id 17 
     name lclavicle
     direction 0.952951 0.290122 0.0878234  
     length 3.54654  
     axis 0 0 0   XYZ
    dof ry rz
    limits (-20.0 10.0)
           (0.0 20.0)
  end
  begin
     id 18 
     name lhumerus
     direction 1 -4.48957e-011 -4.56525e-028   
     length 5.19807   
     axis 180 -30 -90   XYZ
    dof rx ry rz
    limits (-60.0 90.0)
           (-90.0 90.0)
           (-90.0 90.0)
  end
  begin
     id 19
     name lradius
     direction 1 -4.48979e-011 -2.0317e-027   
     length 3.0937   
     axis 180 -30 -90   XYZ
    dof rx
    limits (-10.0 170.0)
  end
  begin
     id 20
     name lwrist
     direction 1 -4.48953e-011 -3.05809e-027   
     length 1.54685   
     axis 8.48514e-016 90 90   XYZ
    dof ry
    limits (-180.0 0.0)
 end
  begin
     id 21 
     name lhand
     direction 1 -4.48952e-011 -6.11639e-027   
     length 0.672632   
     axis 3.9013e-015 90 90   XYZ
    dof rx rz
    limits (-90.0 90.0)
           (-45.0 45.0)
  end
  begin
     id 22 
     name lfingers
     direction 1 -4.48925e-011 -1.22426e-026   
     length 0.542293   
     axis 7.80276e-015 90 90   XYZ
    dof rx
    limits (0.0 90.0)
  end
  begin
     id 23
     name lthumb
     direction 0.707107 -6.3486e-011 0.707107   
     length 0.778628   
     axis -90 45 5.37419e-014   XYZ
    dof rx rz
    limits (-45.0 45.0)
           (-45.0 45.0)
  end
  begin
     id 24 
     name rclavicle
     direction -0.960732 0.273675 -0.0457849   
     length 3.52079  
     axis 0 0 0   XYZ 
    dof ry rz
    limits (-10.0 20.0)
           (-20.0 0.0)
  end
  begin
     id 25 
     name rhumerus
     direction -1 -4.48976e-011 -1.63613e-027  
     length 5.45222   
     axis 180 30 90   XYZ
    dof rx ry rz
    limits (-90.0 60.0)
           (-90.0 90.0)
           (-90.0 90.0)
  end
  begin
     id 26 
     name rradius
     direction -1 -4.48957e-011 -7.00033e-028   
     length 3.01284   
     axis 180 30 90   XYZ
    dof rx
    limits (-10.0 170.0)
  end
  begin
     id 27 
     name rwrist
     direction -1 -4.48983e-011 -3.05543e-027   
     length 1.50642   
     axis 8.48514e-016 -90 -90   XYZ
    dof ry
    limits (-180.0 0.0)
  end
  begin
     id 28
     name rhand
     direction -1 -4.48984e-011 -6.11072e-027   
     length 0.622296   
     axis 3.9013e-015 -90 -90   XYZ
    dof rx rz
    limits (-90.0 90.0)
           (-45.0 45.0)
  end
  begin
     id 29
     name rfingers
     direction -1 -4.48865e-011 -1.22637e-026   
     length 0.501711   
     axis 7.80276e-015 -90 -90   XYZ
    dof rx
    limits (0.0 90.0)
  end
  begin
     id 30
     name rthumb
     direction -0.707107 -6.34932e-011 0.707107   
     length 0.72036   
     axis -90 -45 -5.37419e-014   XYZ
    dof rx rz
    limits (-45.0 45.0)
           (-45.0 45.0)
  end
:hierarchy
  begin
    root lhipjoint rhipjoint lowerback
    lhipjoint lfemur
    lfemur ltibia
    ltibia lfoot
    lfoot ltoes
    rhipjoint rfemur
    rfemur rtibia
    rtibia rfoot
    rfoot rtoes
    lowerback upperback
    upperback thorax
    thorax lowerneck lclavicle rclavicle
    lowerneck upperneck
    upperneck head
    lclavicle lhumerus
    lhumerus lradius
    lradius lwrist
    lwrist lhand lthumb
    lhand lfingers
    rclavicle rhumerus
    rhumerus rradius
    rradius rwrist
    rwrist rhand rthumb
    rhand rfingers
  end

#!OML:ASF H:\Not Pregnant\Project 1\Capture day 1\Session 1\non-pregnant.ASF
:FULLY-SPECIFIED
:DEGREES
378
root 7.39852 14.7803 33.5611 215.1 -102.81 -201.389
lowerback 5.42352 -0.705716 -0.678773
upperback -4.42644 -1.07526 -0.443729
thorax -7.67991 -0.52008 0.0460479
lowerneck 13.9167 -5.80793 -33.1279
upperneck 13.8923 -17.0317 32.4303
head 7.7877 -10.3431 17.4108
rclavicle -9.54166e-015 -2.8625e-014
rhumerus -48.6476 -16.9005 -72.2025
rradius 44.2451
rwrist -0.748648
rhand -19.0423 -13.8174
rfingers 7.12502
rthumb 7.26435 -43.6727
lclavicle -9.54166e-015 -2.8625e-014
lhumerus -42.3681 12.7521 66.195
lradius 81.124
lwrist 46.1316
lhand -22.8269 -30.7772
lfingers 7.12502
lthumb 3.61031 -0.828046
rfemur -52.5257 12.3445 14.8719
rtibia 50.4814
rfoot -18.1694 4.38059
rtoes -20.9688
lfemur -19.1399 -9.80596 -12.698
ltibia 49.5453
lfoot -24.9778 -24.0979
ltoes -4.98227
379
root 7.59287 14.8069 33.5674 214.355 -102.633 -200.377
lowerback 5.67008 -0.796206 -0.958592
upperback -4.43103 -1.22882 -0.494174
thorax -7.82374 -0.580777 0.172454
lowerneck 14.2534 -5.83073 -33.213
upperneck 13.4924 -17.1208 32.6057
head 7.66456 -10.412 17.4985
rclavicle -9.64106e-015 4.77083e-015
rhumerus -49.0551 -18.4976 -70.9164
rradius 41.5426
rwrist -0.33951
rhand -18.6388 -14.3649
rfingers 7.12502
rthumb 7.6538 -44.2064
lclavicle -9.64106e-015 4.77083e-015
lhumerus -41.5805 12.0469 66.954
lradius 79.659
lwrist 44.8383
lhand -22.5017 -31.2343
lfingers 7.12502
lthumb 3.92428 -1.29071
rfemur -53.0808 12.5279 14.0354
rtibia 49.8715
rfoot -18.5771 4.53448
rtoes -21.0234
lfemur -19.6915 -9.94244 -13.124
ltibia 48.8544
lfoot -26.309 -22.7028
ltoes -5.92166
380
root 7.78644 14.8317 33.5785 213.936 -102.442 -199.75
lowerback 5.94637 -0.849841 -1.11962
upperback -4.42965 -1.32171 -0.522343
thorax -7.98028 -0.616832 0.249428
lowerneck 14.6137 -5.85001 -33.3445
upperneck 13.1 -17.2188 32.7741
head 7.54903 -10.4902 17.5941
rclavicle -2.09718e-014 -2.46493e-014
rhumerus -49.528 -20.0681 -69.4998
rradius 38.8807
rwrist -0.0318915
rhand -18.0914 -15.1576
rfingers 7.12502
rthumb 8.1821 -44.9792
lclavicle -2.09718e-014 -2.46493e-014
lhumerus -40.8552 11.3217 67.6991
lradius 78.2564
lwrist 43.7093
lhand -22.2441 -31.6404
lfingers 7.12502
lthumb 4.17303 -1.70149
rfemur -53.5709 12.6928 13.3225
rtibia 49.3281
rfoot -19.0248 4.75793
rtoes -21.0088
lfemur -20.2013 -10.1464 -13.4813
ltibia 48.1781
lfoot -27.4796 -21.3758
ltoes -6.67378
381
root 7.97892 14.8533 33.5932 213.944 -102.226 -199.607
lowerback 6.23211 -0.856793 -1.144
upperback -4.41273 -1.33839 -0.543822
thorax -8.12904 -0.622587 0.247521
lowerneck 14.99 -5.87527 -33.4823
upperneck 12.7091 -17.3324 32.9426
head 7.43976 -10.5782 17.691
rclavicle 9.93923e-017 9.54166e-015
rhumerus -50.0746 -21.6153 -67.9982
rradius 36.3299
rwrist 0.0972813
rhand -17.6738 -16.266
rfingers 7.12502
rthumb 8.58514 -46.0715
lclavicle 9.93923e-017 9.54166e-015
lhumerus -40.1802 10.5591 68.4184
lradius 76.9481
lwrist 42.8053
lhand -22.0086 -32.0152
lfingers 7.12502
lthumb 4.40048 -2.08087
rfemur -54.0021 12.831 12.7824
rtibia 48.8917
rfoot -19.3797 4.98842
rtoes -21.1034
lfemur -20.6742 -10.3385 -13.7579
ltibia 47.546
lfoot -28.5945 -20.003
ltoes -7.61981
382
root 8.17047 14.871 33.6111 214.42 -101.986 -199.978
lowerback 6.5118 -0.811471 -1.03692
upperback -4.37878 -1.2705 -0.561791
thorax -8.25946 -0.594251 0.163941
lowerneck 15.3823 -5.91971 -33.5875
upperneck 12.3098 -17.4693 33.0969
head 7.33064 -10.6762 17.7702
rclavicle -1.98785e-015 -7.95139e-015
rhumerus -50.7093 -23.1454 -66.4318
rradius 33.9585
rwrist 0.0245416
rhand -17.5502 -17.6318
rfingers 7.12502
rthumb 8.70438 -47.4323
lclavicle -1.98785e-015 -7.95139e-015
lhumerus -39.5551 9.75372 69.1275
lradius 75.7618
lwrist 42.1254
lhand -21.7709 -32.3418
lfingers 7.12502
lthumb 4.62999 -2.41241
rfemur -54.3792 12.897 12.4608
rtibia 48.6099
rfoot -19.5296 5.17257
rtoes -21.4536
lfemur -21.1343 -10.4818 -13.9578
ltibia 46.9935
lfoot -29.6506 -18.546
ltoes -8.71098
383
root 8.36079 14.8846 33.6313 215.345 -101.716 -200.831
lowerback 6.7571 -0.723868 -0.833814
upperback -4.32786 -1.13318 -0.568933
thorax -8.35311 -0.537402 0.0269803
lowerneck 15.7731 -5.97865 -33.6671
upperneck 11.9091 -17.6156 33.2243
head 7.22035 -10.7758 17.8271
rclavicle -3.1408e-014 3.97569e-015
rhumerus -51.3929 -24.5722 -64.8649
rradius 31.8013
rwrist -0.278184
rhand -17.746 -19.1783
rfingers 7.12502
rthumb 8.51549 -48.9866
lclavicle -3.1408e-014 3.97569e-015
lhumerus -39.0051 8.93007 69.8078
lradius 74.7186
lwrist 41.6443
lhand -21.5271 -32.624
lfingers 7.12502
lthumb 4.86537 -2.69982
rfemur -54.7014 12.8537 12.382
rtibia 48.5424
rfoot -19.4401 5.27055
rtoes -22.0916
lfemur -21.6036 -10.5591 -14.0964
ltibia 46.548
lfoot -30.6163 -17.0232
ltoes -9.75943
384
root 8.54994 14.8937 33.6531 216.658 -101.416 -202.095
lowerback 6.95544 -0.593707 -0.543143
upperback -4.25844 -0.928059 -0.584981
thorax -8.39985 -0.453073 -0.179812
lowerneck 16.165 -6.0562 -33.699
upperneck 11.5036 -17.7745 33.329
head 7.1065 -10.8778 17.8589
rclavicle -7.35503e-015 -3.97569e-015
rhumerus -52.132 -25.9258 -63.3115
rradius 29.8796
rwrist -0.738416
rhand -18.2571 -20.7746
rfingers 7.12502
rthumb 8.02217 -50.6023
lclavicle -7.35503e-015 -3.97569e-015
lhumerus -38.5249 8.08246 70.4544
lradius 73.8306
lwrist 41.3332
lhand -21.276 -32.8513
lfingers 7.12502
lthumb 5.10784 -2.93288
rfemur -54.9567 12.6545 12.5657
rtibia 48.7485
rfoot -19.1464 5.25223
rtoes -23.0018
lfemur -22.0977 -10.5822 -14.1956
ltibia 46.233
lfoot -31.4571 -15.5015
ltoes -10.4205
